<svg xmlns="http://www.w3.org/2000/svg" viewBox="0 0 24 24"><path fill="#000" d="M12 .5C5.73.5.75 5.48.75 11.76c0 4.94 3.2 9.12 7.63 10.6.56.1.77-.24.77-.53 0-.26-.01-1-.02-1.96-3.1.67-3.75-1.5-3.75-1.5-.5-1.27-1.22-1.61-1.22-1.61-.99-.68.07-.67.07-.67 1.1.08 1.68 1.14 1.68 1.14.97 1.66 2.54 1.18 3.16.9.1-.7.38-1.18.69-1.45-2.48-.28-5.09-1.24-5.09-5.5 0-1.21.43-2.2 1.14-2.98-.12-.28-.5-1.41.11-2.94 0 0 .93-.3 3.05 1.14.88-.25 1.82-.37 2.76-.37.94 0 1.88.13 2.76.37 2.12-1.44 3.05-1.14 3.05-1.14.61 1.53.23 2.66.11 2.94.71.78 1.14 1.77 1.14 2.98 0 4.27-2.61 5.22-5.11 5.5.39.34.74 1.02.74 2.06 0 1.49-.01 2.69-.01 3.05 0 .29.2.64.78.53C19.05 20.88 22.25 16.7 22.25 11.76 22.25 5.48 17.27.5 11 .5z"/></svg>