<svg xmlns="http://www.w3.org/2000/svg" viewBox="0 0 48 48"><path fill="#EA4335" d="M24 9.5c3.9 0 6.9 1.6 8.5 2.9l6.2-6.2C35.4 3 30.9 1 24 1 14.7 1 6.9 6.3 3.2 14.6l7.7 6C12.7 15 17.7 9.5 24 9.5z"/><path fill="#34A853" d="M46.5 24.5c0-1.6-.1-2.9-.4-4.2H24v8h12.7c-.6 3.5-2.7 6.5-5.7 8.5l8.9 6.8c5.2-4.9 8.6-12 8.6-19.1z"/><path fill="#4A90E2" d="M10.9 29.2c-.8-2.3-1.2-4.8-1.2-7.2 0-2.4.4-4.9 1.2-7.2L3.2 8.8C1.2 12.5 0 16.8 0 21.9s1.2 9.4 3.2 13.1l7.7-5.8z"/><path fill="#FBBC05" d="M24 46.9c6.3 0 11.8-2.1 16.1-5.8l-7.7-6C30.9 36.6 27 38 24 38c-6.3 0-11.3-5.5-12.6-12.7l-7.7 6C6.9 41.7 14.7 46.9 24 46.9z"/></svg>